<svg width="1440" height="622" viewBox="0 0 1440 622" fill="none" xmlns="http://www.w3.org/2000/svg">
<path opacity="0.27" fill-rule="evenodd" clip-rule="evenodd" d="M1437.54 142.176C1407.72 125.895 1354.11 105.175 1290.18 95.8903C1226.25 86.6054 1151.96 88.7528 1080.77 118.24C1058.5 127.465 1043.07 138.788 1032.63 151.574C1022.18 164.363 1016.76 178.591 1014.48 193.593C1010.57 219.399 1015.98 247.538 1021.18 274.608L1021.19 274.644C1022.03 278.997 1022.86 283.323 1023.65 287.607C1026.49 303.093 1028.74 318.036 1028.57 331.812C1028.41 345.585 1025.81 358.161 1018.97 368.929C1005.31 390.453 974.572 404.954 911.648 407.063C816.945 410.237 752.041 382.491 697.056 358.985L697.055 358.985C679.001 351.267 662.017 344.006 645.398 338.447C611.785 327.204 579.685 322.945 543.355 336.07C507.047 349.186 466.571 379.645 416.142 437.697C365.777 495.674 323.742 512.896 286.241 507.629C248.686 502.355 215.518 474.519 182.922 441.953C175.048 434.086 167.207 425.943 159.349 417.781C134.721 392.202 109.914 366.438 83.3281 348.4C65.7809 336.495 47.4298 327.933 27.8059 325.002C8.17566 322.069 -12.6998 324.774 -35.2827 335.36L-34.9019 336.172C-12.4683 325.657 8.22921 322.984 27.6734 325.889C47.1239 328.795 65.3489 337.286 82.8244 349.143C109.325 367.122 134.037 392.788 158.65 418.35L158.65 418.35L158.651 418.351C166.522 426.525 174.382 434.689 182.288 442.588C214.873 475.143 248.232 503.197 286.116 508.518C324.053 513.845 366.365 496.367 416.819 438.286C467.208 380.279 507.563 349.954 543.659 336.913C579.733 323.881 611.612 328.092 645.114 339.298C661.643 344.827 678.572 352.065 696.589 359.767C751.598 383.285 816.755 411.142 911.678 407.96C974.659 405.849 1005.82 391.335 1019.73 369.41C1026.69 358.454 1029.3 345.697 1029.47 331.823C1029.64 317.954 1027.37 302.937 1024.53 287.445C1023.74 283.137 1022.9 278.792 1022.06 274.424L1022.06 274.415C1016.86 247.333 1011.49 219.367 1015.37 193.728C1017.63 178.858 1022.99 164.786 1033.32 152.142C1043.65 139.494 1058.95 128.25 1081.12 119.069C1152.11 89.6604 1226.23 87.5093 1290.05 96.7781C1353.88 106.047 1407.38 126.733 1437.11 142.964L1437.54 142.176ZM1308.94 133.404C1372.87 142.688 1426.47 163.408 1456.3 179.69L1455.87 180.477C1426.14 164.247 1372.64 143.561 1308.81 134.292C1244.99 125.023 1170.87 127.174 1099.87 156.583C1077.71 165.764 1062.4 177.008 1052.08 189.655C1041.75 202.3 1036.38 216.372 1034.13 231.242C1030.24 256.881 1035.62 284.846 1040.82 311.929L1040.82 311.938L1040.82 311.945C1041.66 316.311 1042.49 320.653 1043.29 324.958C1046.13 340.451 1048.4 355.467 1048.23 369.337C1048.06 383.211 1045.44 395.968 1038.49 406.924C1024.57 428.848 993.416 443.362 930.435 445.473C835.512 448.655 770.355 420.799 715.346 397.281C697.329 389.578 680.4 382.341 663.871 376.812C630.369 365.606 598.49 361.395 562.416 374.427C526.32 387.468 485.965 417.793 435.576 475.799C385.122 533.88 342.81 551.359 304.873 546.031C266.989 540.711 233.63 512.657 201.045 480.101C193.139 472.203 185.279 464.039 177.408 455.865L177.408 455.864L177.407 455.864C152.795 430.301 128.082 404.636 101.581 386.656C84.1059 374.8 65.881 366.309 46.4304 363.403C26.9862 360.498 6.28875 363.17 -16.1449 373.686L-16.5257 372.874C6.05724 362.288 26.9327 359.583 46.563 362.515C66.1869 365.447 84.5379 374.009 102.085 385.914C128.671 403.951 153.478 429.715 178.106 455.294C185.964 463.456 193.805 471.599 201.679 479.467C234.275 512.033 267.444 539.869 304.998 545.143C342.499 550.41 384.535 533.188 434.899 475.211C485.328 417.159 525.804 386.7 562.112 373.583C598.442 360.458 630.542 364.718 664.155 375.961C680.774 381.52 697.759 388.781 715.813 396.499C770.798 420.005 835.702 447.751 930.405 444.577C993.329 442.468 1024.07 427.967 1037.73 406.443C1044.57 395.674 1047.16 383.099 1047.33 369.326C1047.5 355.55 1045.24 340.606 1042.4 325.12C1041.62 320.837 1040.79 316.512 1039.95 312.159L1039.94 312.122C1034.74 285.052 1029.33 256.912 1033.24 231.107C1035.52 216.105 1040.94 201.876 1051.38 189.088C1061.82 176.301 1077.26 164.978 1099.53 155.754C1170.71 126.266 1245.01 124.119 1308.94 133.404ZM1475.05 217.204C1445.23 200.922 1391.63 180.202 1327.7 170.918C1263.76 161.633 1189.47 163.78 1118.29 193.268C1096.02 202.492 1080.58 213.815 1070.14 226.601C1059.7 239.39 1054.27 253.619 1052 268.621C1048.09 294.426 1053.5 322.566 1058.7 349.635L1058.71 349.672C1059.54 354.025 1060.37 358.351 1061.16 362.634C1064 378.12 1066.26 393.063 1066.09 406.84C1065.92 420.612 1063.32 433.188 1056.49 443.957C1042.83 465.48 1012.09 479.981 949.161 482.09C854.459 485.265 789.555 457.519 734.57 434.013C716.516 426.295 699.531 419.034 682.912 413.475C649.299 402.231 617.199 397.972 580.868 411.097C544.561 424.214 504.085 454.672 453.655 512.725C403.291 570.702 361.256 587.923 323.755 582.656C286.2 577.382 253.032 549.547 220.436 516.98C212.562 509.113 204.721 500.97 196.863 492.808C172.234 467.229 147.428 441.465 120.842 423.428C103.295 411.523 84.9437 402.961 65.3198 400.029C45.6895 397.096 24.8141 399.802 2.23114 410.387L2.61193 411.2C25.0456 400.684 45.7431 398.011 65.1872 400.916C84.6378 403.822 102.863 412.314 120.338 424.17C146.839 442.15 171.551 467.815 196.164 493.378L196.164 493.378L196.165 493.379C204.036 501.553 211.896 509.716 219.802 517.615C252.387 550.17 285.746 578.224 323.63 583.545C361.566 588.873 403.879 571.394 454.333 513.313C504.722 455.307 545.076 424.981 581.173 411.941C617.247 398.909 649.126 403.119 682.628 414.326C699.157 419.855 716.085 427.092 734.103 434.795C789.112 458.313 854.269 486.169 949.192 482.987C1012.17 480.876 1043.33 466.362 1057.25 444.437C1064.2 433.482 1066.81 420.725 1066.99 406.851C1067.16 392.981 1064.89 377.964 1062.04 362.472C1061.25 358.167 1060.42 353.826 1059.58 349.462L1059.58 349.457L1059.58 349.452L1059.58 349.443C1054.37 322.36 1049 294.394 1052.89 268.755C1055.14 253.885 1060.51 239.814 1070.83 227.169C1081.16 214.522 1096.47 203.278 1118.63 194.097C1189.62 164.688 1263.74 162.537 1327.57 171.805C1391.39 181.075 1444.89 201.761 1474.62 217.991L1475.05 217.204ZM1493.81 254.717C1463.99 238.435 1410.39 217.715 1346.45 208.431C1282.52 199.146 1208.23 201.293 1137.04 230.781C1114.78 240.005 1099.34 251.328 1088.9 264.115C1078.45 276.903 1073.03 291.132 1070.76 306.134C1066.84 331.939 1072.25 360.079 1077.46 387.148L1077.46 387.186C1078.3 391.539 1079.13 395.864 1079.92 400.147C1082.76 415.633 1085.02 430.576 1084.85 444.353C1084.68 458.125 1082.08 470.701 1075.25 481.47C1061.58 502.994 1030.84 517.494 967.918 519.604C873.216 522.778 808.312 495.032 753.327 471.526C735.273 463.808 718.288 456.547 701.669 450.988C668.056 439.744 635.956 435.485 599.625 448.61C563.318 461.727 522.842 492.185 472.412 550.238C422.048 608.215 380.013 625.436 342.512 620.17C304.957 614.895 271.789 587.06 239.193 554.493C231.319 546.626 223.478 538.483 215.62 530.321C190.991 504.742 166.185 478.978 139.599 460.941C122.052 449.036 103.701 440.474 84.0768 437.542C64.4465 434.609 43.571 437.315 20.9881 447.901L21.3689 448.713C43.8025 438.197 64.5 435.525 83.9442 438.43C103.395 441.335 121.62 449.827 139.095 461.683C165.596 479.663 190.308 505.328 214.921 530.891L214.921 530.891L214.922 530.892C222.793 539.066 230.653 547.23 238.559 555.128C271.143 587.684 304.503 615.738 342.387 621.058C380.323 626.386 422.635 608.907 473.09 550.826C523.479 492.82 563.833 462.494 599.93 449.454C636.004 436.422 667.883 440.633 701.384 451.839C717.914 457.368 734.842 464.605 752.859 472.308C807.869 495.826 873.026 523.682 967.948 520.5C1030.93 518.389 1062.09 503.875 1076 481.951C1082.96 470.995 1085.57 458.238 1085.74 444.364C1085.91 430.494 1083.64 415.477 1080.8 399.985C1080.01 395.681 1079.18 391.339 1078.34 386.975L1078.34 386.97L1078.33 386.965L1078.33 386.956C1073.13 359.873 1067.76 331.907 1071.64 306.268C1073.9 291.399 1079.27 277.327 1089.59 264.682C1099.92 252.035 1115.22 240.791 1137.39 231.61C1208.38 202.201 1282.5 200.05 1346.32 209.319C1410.15 218.588 1463.65 239.274 1493.38 255.504L1493.81 254.717Z" fill="url(#paint0_linear_321_50)"/>
<path opacity="0.27" fill-rule="evenodd" clip-rule="evenodd" d="M1434.67 484.684C1404.54 501.131 1350.39 522.061 1285.81 531.44C1221.23 540.819 1146.19 538.649 1074.28 508.863C1051.79 499.545 1036.19 488.108 1025.65 475.192C1015.1 462.275 1009.62 447.902 1007.32 432.749C1003.37 406.683 1008.83 378.26 1014.09 350.917L1014.09 350.914L1014.09 350.905C1014.94 346.498 1015.78 342.119 1016.58 337.783C1019.45 322.139 1021.73 307.044 1021.56 293.127C1021.38 279.215 1018.76 266.51 1011.86 255.632C998.056 233.887 967.001 219.239 903.438 217.109C807.772 213.902 742.208 241.93 686.666 265.675C668.428 273.471 651.272 280.806 634.484 286.421C600.531 297.778 568.106 302.08 531.408 288.823C494.733 275.573 453.847 244.806 402.906 186.165C352.03 127.599 309.567 110.201 271.682 115.522C233.745 120.85 200.239 148.969 167.313 181.866C159.359 189.813 151.439 198.038 143.501 206.282L143.5 206.284C118.622 232.122 93.564 258.147 66.7083 276.367C48.9834 288.393 30.4468 297.041 10.6246 300.003C-9.20402 302.965 -30.2904 300.233 -53.1018 289.54L-52.721 288.727C-30.0589 299.35 -9.15046 302.05 10.492 299.116C30.1408 296.18 48.5514 287.602 66.2046 275.625C92.9751 257.463 117.939 231.536 142.801 205.714C150.752 197.457 158.692 189.21 166.678 181.231C199.594 148.345 233.291 120.008 271.558 114.633C309.877 109.252 352.617 126.907 403.583 185.577C454.484 244.172 495.248 274.806 531.713 287.979C568.154 301.144 600.358 296.89 634.2 285.57C650.897 279.985 667.997 272.674 686.197 264.893L686.198 264.893C741.766 241.136 807.582 212.998 903.468 216.212C967.088 218.344 998.559 233.005 1012.62 255.151C1019.64 266.217 1022.28 279.102 1022.45 293.116C1022.63 307.127 1020.33 322.295 1017.46 337.945C1016.66 342.299 1015.82 346.691 1014.97 351.105C1009.71 378.463 1004.28 406.714 1008.21 432.614C1010.49 447.636 1015.91 461.851 1026.34 474.625C1036.77 487.401 1052.23 498.76 1074.62 508.034C1146.34 537.742 1221.21 539.915 1285.69 530.552C1350.16 521.188 1404.2 500.292 1434.24 483.897L1434.67 484.684ZM1304.76 493.546C1369.34 484.167 1423.49 463.237 1453.61 446.79L1453.18 446.003C1423.15 462.398 1369.11 483.294 1304.63 492.658C1240.16 502.021 1165.29 499.848 1093.57 470.14C1071.18 460.866 1055.72 449.507 1045.29 436.731C1034.86 423.957 1029.43 409.742 1027.16 394.72C1023.23 368.82 1028.66 340.569 1033.92 313.211C1034.76 308.797 1035.61 304.405 1036.41 300.051C1039.28 284.401 1041.57 269.233 1041.4 255.222C1041.23 241.208 1038.59 228.323 1031.56 217.257C1017.51 195.111 986.035 180.45 922.415 178.318C826.53 175.104 760.713 203.242 705.146 226.999L705.145 226.999L705.141 227.001C686.942 234.781 669.843 242.091 653.147 247.676C619.305 258.996 587.102 263.25 550.66 250.085C514.196 236.912 473.431 206.278 422.53 147.683C371.565 89.0126 328.824 71.3577 290.505 76.7393C252.239 82.1136 218.541 110.451 185.626 143.337C177.64 151.316 169.7 159.563 161.749 167.82C136.886 193.642 111.923 219.569 85.1521 237.731C67.4989 249.708 49.0883 258.286 29.4394 261.221C9.79699 264.156 -11.1115 261.456 -33.7736 250.833L-34.1544 251.646C-11.343 262.339 9.74343 265.071 29.572 262.109C49.3942 259.147 67.9308 250.499 85.6558 238.473C112.511 220.253 137.569 194.228 162.447 168.39L162.449 168.388C170.386 160.144 178.306 151.919 186.26 143.972C219.186 111.075 252.693 82.9558 290.63 77.6278C328.514 72.3072 370.977 89.7047 421.853 148.271C472.794 206.912 513.68 237.679 550.355 250.929C587.053 264.186 619.478 259.884 653.432 248.527C670.219 242.911 687.376 235.577 705.613 227.781C761.156 204.036 826.72 176.008 922.385 179.215C985.948 181.345 1017 195.993 1030.81 217.737C1037.71 228.616 1040.33 241.321 1040.5 255.233C1040.67 269.15 1038.4 284.245 1035.52 299.889C1034.73 304.225 1033.89 308.603 1033.04 313.009L1033.04 313.02L1033.04 313.023C1027.78 340.366 1022.32 368.789 1026.27 394.855C1028.57 410.008 1034.05 424.38 1044.59 437.298C1055.14 450.214 1070.73 461.651 1093.23 470.969C1165.13 500.755 1240.18 502.925 1304.76 493.546ZM1472.56 408.896C1442.43 425.342 1388.29 446.272 1323.71 455.651C1259.13 465.03 1184.08 462.861 1112.17 433.074C1089.68 423.757 1074.09 412.319 1063.54 399.404C1052.99 386.486 1047.51 372.114 1045.22 356.96C1041.27 330.895 1046.73 302.472 1051.98 275.128L1051.98 275.126L1051.99 275.115C1052.83 270.708 1053.68 266.33 1054.47 261.994C1057.34 246.351 1059.62 231.256 1059.45 217.339C1059.28 203.426 1056.66 190.722 1049.75 179.843C1035.95 158.099 1004.9 143.451 941.332 141.32C845.667 138.113 780.103 166.142 724.56 189.886C706.323 197.682 689.166 205.017 672.379 210.632C638.425 221.99 606.001 226.292 569.303 213.034C532.627 199.785 491.741 169.018 440.8 110.376C389.925 51.8102 347.461 34.4127 309.577 39.7333C271.64 45.0613 238.134 73.1805 205.207 106.077C197.253 114.024 189.334 122.249 181.396 130.494L181.394 130.495C156.516 156.334 131.459 182.359 104.603 200.579C86.878 212.604 68.3414 221.253 48.5192 224.214C28.6906 227.177 7.60423 224.444 -15.2072 213.751L-14.8264 212.939C7.83573 223.562 28.7442 226.262 48.3867 223.327C68.0355 220.391 86.4461 211.813 104.099 199.836C130.87 181.674 155.833 155.747 180.696 129.926C188.647 121.668 196.587 113.421 204.573 105.443C237.488 72.5568 271.186 44.2191 309.452 38.8448C347.772 33.4631 390.512 51.1181 441.478 109.788C492.378 168.383 533.143 199.017 569.607 212.19C606.049 225.355 638.252 221.102 672.094 209.781C688.79 204.197 705.889 196.887 724.087 189.106L724.088 189.106L724.092 189.104L724.093 189.104C779.66 165.348 845.477 137.209 941.362 140.423C1004.98 142.556 1036.45 157.217 1050.51 179.362C1057.53 190.428 1060.18 203.314 1060.35 217.328C1060.52 231.338 1058.23 246.507 1055.35 262.156C1054.55 266.511 1053.71 270.902 1052.86 275.317C1047.61 302.674 1042.18 330.925 1046.1 356.826C1048.38 371.847 1053.81 386.062 1064.24 398.836C1074.67 411.612 1090.13 422.971 1112.52 432.245C1184.23 461.953 1259.11 464.126 1323.58 454.763C1388.05 445.4 1442.1 424.504 1472.13 408.108L1472.56 408.896ZM1491.51 371.001C1461.38 387.448 1407.24 408.378 1342.66 417.756C1278.07 427.135 1203.03 424.966 1131.12 395.18C1108.63 385.862 1093.03 374.425 1082.49 361.509C1071.94 348.591 1066.46 334.219 1064.16 319.066C1060.21 293 1065.68 264.577 1070.93 237.234L1070.93 237.231L1070.93 237.22C1071.78 232.814 1072.62 228.435 1073.42 224.1C1076.29 208.456 1078.57 193.361 1078.4 179.444C1078.23 165.532 1075.61 152.827 1068.7 141.948C1054.9 120.204 1023.84 105.556 960.279 103.425C864.614 100.219 799.05 128.247 743.508 151.992C725.27 159.788 708.113 167.122 691.326 172.738C657.373 184.095 624.948 188.397 588.25 175.14C551.575 161.89 510.688 131.123 459.748 72.482C408.872 13.9157 366.409 -3.48181 328.524 1.83875C290.587 7.16675 257.081 35.286 224.154 68.1828C216.201 76.1295 208.281 84.3548 200.343 92.5991L200.342 92.6005C175.464 118.439 150.406 144.464 123.55 162.684C105.825 174.71 87.2887 183.358 67.4665 186.32C47.6379 189.282 26.5515 186.549 3.74011 175.857L4.1209 175.044C26.783 185.667 47.6915 188.367 67.3339 185.432C86.9828 182.497 105.393 173.919 123.047 161.942C149.817 143.779 174.78 117.853 199.643 92.031C207.594 83.7736 215.534 75.5268 223.52 67.5481C256.436 34.6622 290.133 6.32458 328.4 0.950317C366.719 -4.4314 409.459 13.2236 460.425 71.8936C511.326 130.489 552.09 161.123 588.555 174.296C624.996 187.461 657.199 183.207 691.042 171.887C707.737 166.302 724.836 158.992 743.035 151.212L743.036 151.212L743.039 151.21L743.04 151.21C798.608 127.453 864.424 99.3147 960.31 102.529C1023.93 104.661 1055.4 119.322 1069.46 141.468C1076.48 152.534 1079.12 165.419 1079.29 179.433C1079.47 193.443 1077.17 208.612 1074.3 224.262C1073.5 228.616 1072.66 233.008 1071.81 237.422C1066.55 264.78 1061.13 293.031 1065.05 318.931C1067.33 333.952 1072.75 348.168 1083.18 360.942C1093.62 373.718 1109.08 385.076 1131.47 394.351C1203.18 424.059 1278.05 426.232 1342.53 416.869C1407 407.505 1461.05 386.609 1491.08 370.214L1491.51 371.001Z" fill="url(#paint1_linear_321_50)"/>
<defs>
<linearGradient id="paint0_linear_321_50" x1="140.561" y1="487.214" x2="1480.73" y2="487.214" gradientUnits="userSpaceOnUse">
<stop offset="0.341667" stop-color="#5377F7" stop-opacity="0.82"/>
<stop offset="0.511553" stop-color="#F8EFF4" stop-opacity="0.1"/>
<stop offset="0.851637" stop-color="#5377F7" stop-opacity="0.7"/>
</linearGradient>
<linearGradient id="paint1_linear_321_50" x1="124.526" y1="136.151" x2="1478.29" y2="136.151" gradientUnits="userSpaceOnUse">
<stop offset="0.310417" stop-color="#5377F7" stop-opacity="0.81"/>
<stop offset="0.461458" stop-color="#F8EFF4" stop-opacity="0.1"/>
<stop offset="0.851637" stop-color="#5377F7" stop-opacity="0.7"/>
</linearGradient>
</defs>
</svg>
